<svg xmlns="http://www.w3.org/2000/svg" xml:space="preserve" x="0" y="0" version="1.1" viewBox="0 0 52.12 40.32" width="54" height="42" fill="#454545"><path d="M36.38 19.77a3.82 3.82 0 1 1 7.64 0V23h2.79v-3.23c0-3.65-2.97-6.61-6.61-6.61-3.65 0-6.61 2.97-6.61 6.61V23h2.79v-3.23zM48.99 24.67H31.41c-.75 0-1.37.61-1.37 1.37v12.83c0 .75.61 1.37 1.37 1.37H49c.75 0 1.37-.61 1.37-1.37V26.04c-.01-.75-.63-1.37-1.38-1.37zM41.59 34c0 .77-.62 1.4-1.4 1.4s-1.4-.62-1.4-1.4v-3.1c0-.77.62-1.4 1.4-1.4s1.4.62 1.4 1.4V34z" class="st0"/><path d="M47.43.23H4.71C2.17.23.1 2.27.1 4.77v27.74c0 2.5 2.07 4.54 4.61 4.54h22.08c.46 0 .84-.38.84-.84 0-.46-.38-.84-.84-.84H4.71c-1.62 0-2.93-1.29-2.93-2.87V11.78h48.57v10.15c0 .46.38.84.84.84s.84-.38.84-.84V4.78c0-2.51-2.06-4.55-4.6-4.55zM1.78 7V4.78c0-1.58 1.31-2.87 2.93-2.87h42.71c1.62 0 2.93 1.29 2.93 2.87V7H1.78z" class="st0"/><path d="M7.19 29.97c-.46 0-.84.38-.84.84 0 .46.38.84.84.84h3.1c.46 0 .84-.38.84-.84 0-.46-.38-.84-.84-.84h-3.1z" class="st0"/></svg>