<svg xmlns="http://www.w3.org/2000/svg" xml:space="preserve" x="0" y="0" version="1.1" viewBox="0 0 55.42 60.13" width="62" height="58" fill="#454545"><path d="M35 6.65a.872.872 0 0 0-1.04.61c-.13.46.14.93.6 1.06 5.87 1.63 11.03 5.48 14.3 10.55 3.25 5.08 4.52 11.33 3.52 17.22-.93 5.89-4.14 11.34-8.75 15.03a24.335 24.335 0 0 1-7.74 4.14c-2.8.89-5.75 1.24-8.66 1.08-5.83-.3-11.49-2.82-15.54-6.97-4.09-4.11-6.54-9.71-6.79-15.42-.32-5.72 1.59-11.46 5.18-15.84 3.35-4.14 8.13-7.04 13.29-8.08v2.36c0 .35.21.66.53.79.11.04.22.07.33.07.22 0 .44-.09.61-.25l5.73-5.73c.34-.34.34-.88 0-1.22L24.84.32a.86.86 0 0 0-1.47.6V4.2c-6.89 1.25-13.19 5.16-17.4 10.65a28.473 28.473 0 0 0-4.71 9.18C.27 27.34-.1 30.82.18 34.24a27.99 27.99 0 0 0 2.61 9.88c1.46 3.09 3.49 5.9 5.95 8.26 4.89 4.75 11.6 7.51 18.34 7.67 3.37.1 6.75-.4 9.92-1.51 3.18-1.1 6.14-2.79 8.69-4.94 5.11-4.32 8.53-10.54 9.39-17.11.94-6.56-.67-13.4-4.36-18.84-3.7-5.44-9.4-9.43-15.72-11z" class="st0"/><path d="M27.39 47.88V33.33l-12.61-7.28v13.5c0 .65.35 1.26.92 1.59l11.63 6.72c.02.01.04.01.06.02zM28.25 31.84l5.46-3.15-12.61-7.28-5.4 3.12c-.02.01-.04.02-.05.04l12.6 7.27zM35.43 27.69l5.42-3.13c-.02-.01-.04-.03-.05-.04L29.17 17.8c-.28-.16-.6-.25-.92-.25-.32 0-.64.08-.92.25l-4.51 2.6 12.61 7.29zM36.29 34.69c0 .47-.39.86-.86.86a.86.86 0 0 1-.86-.86v-4.51l-5.46 3.15v14.55c.02-.01.04-.01.06-.02l11.63-6.72c.57-.33.92-.94.92-1.59v-13.5l-5.42 3.13v5.51z" class="st0"/></svg>