<svg xmlns="http://www.w3.org/2000/svg" xml:space="preserve" x="0" y="0" version="1.1" viewBox="0 0 78.53 40.27" width="82" height="42" fill="#454545"><path d="M72.03 6.39c-.22-.44-.66-.71-1.14-.71H62.2v-4.3c0-.7-.57-1.28-1.28-1.28H16.11c-.7 0-1.28.57-1.28 1.28v4.7h12.08c.88 0 1.6.71 1.6 1.6s-.71 1.6-1.6 1.6H10.64c-.7 0-1.28.57-1.28 1.28s.57 1.28 1.28 1.28h4.19v2h7.49c.88 0 1.6.71 1.6 1.6s-.71 1.6-1.6 1.6H6.05c-.7 0-1.28.57-1.28 1.28s.57 1.28 1.28 1.28h8.78v2h2.9c.88 0 1.6.71 1.6 1.6 0 .88-.71 1.6-1.6 1.6H1.46c-.7 0-1.28.57-1.28 1.28 0 .7.57 1.28 1.28 1.28h13.37v6.01c0 .7.57 1.28 1.28 1.28h3.64c0-4.08 3.32-7.4 7.4-7.4s7.4 3.32 7.4 7.4h24.18c0-4.08 3.32-7.4 7.4-7.4s7.4 3.32 7.4 7.4h3.64c.7 0 1.28-.57 1.28-1.28v-13.4c0-.39-.09-.78-.26-1.13L72.03 6.39zm2.23 13.63H63.48c-.7 0-1.28-.57-1.28-1.28V9.99c0-.7.57-1.28 1.28-1.28h5.42c.49 0 .93.28 1.14.71l4.79 9.68c.21.42-.1.92-.57.92z" class="st0"/><path d="M66.13 29.13c-3.03 0-5.49 2.46-5.49 5.49 0 3.03 2.46 5.49 5.49 5.49 3.03 0 5.49-2.46 5.49-5.49 0-3.03-2.46-5.49-5.49-5.49zM27.15 29.13c-3.03 0-5.49 2.46-5.49 5.49 0 3.03 2.46 5.49 5.49 5.49 3.03 0 5.49-2.46 5.49-5.49 0-3.03-2.47-5.49-5.49-5.49z" class="st0"/></svg>