<svg xmlns="http://www.w3.org/2000/svg" xml:space="preserve" x="0" y="0" version="1.1" viewBox="0 0 50.36 60.46" width="52" height="62" fill="#454545"><path d="M4.49 45.22h1.64c2.34 0 4.24-1.9 4.24-4.24v-9.95c0-2.34-1.9-4.24-4.24-4.24H1.17c-.51 0-.93.41-.93.93v13.26c.01 2.33 1.91 4.24 4.25 4.24zM49.24 26.79h-4.96c-2.34 0-4.24 1.9-4.24 4.24v9.95c0 2.34 1.9 4.24 4.24 4.24h1.65c.52 0 1.01-.1 1.47-.27l-14.54 13.4h-4.24v-1.54c0-.51-.42-.93-.93-.93h-4.97c-.51 0-.93.41-.93.93v2.46c0 .51.42.93.93.93h10.5c.23 0 .46-.09.63-.25l16.02-14.76c.19-.18.3-.42.3-.68V27.72c0-.52-.42-.93-.93-.93zM1.53 25.5c.49.11.98-.2 1.09-.7l.04-.2c1.29-5.9 4.25-10.81 8.3-14.24 4.09-3.39 9.13-5.22 14.24-5.22 5.11-.01 10.15 1.83 14.24 5.22 4.06 3.43 7.01 8.34 8.31 14.24l.04.2c.09.41.46.72.9.72.51 0 .91-.41.91-.92-.01-3.19-.63-6.39-1.86-9.34a24.46 24.46 0 0 0-5.29-7.92 24.355 24.355 0 0 0-7.92-5.29C31.6.83 28.4.21 25.21.2c-3.19.01-6.39.63-9.34 1.86a24.46 24.46 0 0 0-7.92 5.29 24.355 24.355 0 0 0-5.29 7.92C1.43 18.22.81 21.42.8 24.61c.01.41.3.79.73.89z" class="st1"/><path d="M17.68 20.76c.15-.17.29-.33.4-.5.11-.16.19-.33.25-.5s.08-.35.08-.54a1.204 1.204 0 0 0-.36-.85c-.12-.12-.26-.22-.42-.29-.17-.07-.36-.11-.57-.11-.3 0-.56.07-.77.21s-.38.33-.5.59c-.11.26-.17.56-.17.92h-.85c0-.5.09-.94.27-1.31.18-.38.44-.67.79-.88.34-.21.75-.31 1.23-.31.39 0 .72.06 1 .19s.51.3.69.5c.18.2.31.42.4.66.09.23.13.46.13.67 0 .36-.09.72-.26 1.07-.17.35-.4.67-.67.95l-2.23 2.27h3.19v.8h-4.94l3.31-3.54zM23.94 17.29h.35v7h-.85v-5.11l-1.98 2.96H25.39v.75h-5.33l3.88-5.6zM30.69 17.29l-4.05 8.5h-.8l4.05-8.5h.8zM31.14 17.29h4.9l-3.35 7h-.89l2.97-6.2h-3.63v-.8z" class="st1"/></svg>