<svg class="qodef-svg--cart" xmlns="http://www.w3.org/2000/svg" xmlns:xlink="http://www.w3.org/1999/xlink" x="0px" y="0px" viewBox="0 0 15.16 17.2" style="enable-background:new 0 0 15.16 17.2;" xml:space="preserve"><path d="M15.07,4.45h-2.81c-0.27-2.43-1.85-4.32-4.7-4.32c-2.8,0-4.38,2.02-4.66,4.32H0.07l0,12.2c-0.01,0.12,0.04,0.25,0.13,0.34&#10;&#9;c0.1,0.09,0.23,0.14,0.37,0.14h13.99c0.14,0,0.28-0.05,0.37-0.15c0.1-0.09,0.14-0.22,0.13-0.34L15.07,4.45z M7.56,1.02&#10;&#9;c1.83,0,3.39,0.97,3.69,3.43H3.91C4.22,2.04,5.8,1.02,7.56,1.02z M1.12,16.24V5.34h1.7C2.79,5.76,2.78,6.18,2.78,6.59&#10;&#9;c0,0.25,0.23,0.45,0.5,0.45s0.5-0.2,0.5-0.45c0-0.45,0.01-0.86,0.04-1.25h7.49c0.02,0.39,0.03,0.8,0.03,1.25&#10;&#9;c0,0.25,0.23,0.45,0.5,0.45c0.28,0,0.5-0.2,0.5-0.45c0-0.42-0.01-0.84-0.03-1.25h1.68v10.9H1.12z"/></svg>